# xmcd CD database file
#
# Track frame offsets:
#	150
#	14265
#	25188
#	41736
#	55190
#	69285
#	87831
#	99595
#	113706
#	129721
#	142025
#	157391
#	176462
#	189697
#
# Disc length: 2717 seconds
#
# Revision: 0
# Processed by: cddbd v1.4PL0 Copyright (c) Steve Scherf et al.
# Submitted via: CDex 1.50Beta7
#
DISCID=c10a9b0e
DTITLE=come away with me - Norah Jones
DYEAR=1900
DGENRE=Jazz
TTITLE0=Don't Know Why
TTITLE1=Seven Years
TTITLE2=Cold Cold Heart
TTITLE3=Feelin' The Same Way
TTITLE4=Come Away With Me
TTITLE5=Shoot the Moon
TTITLE6=Turn Me On
TTITLE7=Lonestar
TTITLE8=I've Got to See You Again
TTITLE9=Painter Song
TTITLE10=One Flight Down
TTITLE11=Nightingale
TTITLE12=The Long Day Is Over
TTITLE13=The Nearness Of You
EXTD=
EXTT0=
EXTT1=
EXTT2=
EXTT3=
EXTT4=
EXTT5=
EXTT6=
EXTT7=
EXTT8=
EXTT9=
EXTT10=
EXTT11=
EXTT12=
EXTT13=
PLAYORDER=
